<?xml version="1.0" encoding="UTF-8"?>
<svg width="70px" height="70px" viewBox="0 0 70 70" version="1.1" xmlns="http://www.w3.org/2000/svg" xmlns:xlink="http://www.w3.org/1999/xlink">
    <!-- Generator: Sketch 53.2 (72643) - https://sketchapp.com -->
    <title>analysis (1)</title>
    <desc>Created with Sketch.</desc>
    <g id="ABOUT" stroke="none" stroke-width="1" fill="none" fill-rule="evenodd">
        <g id="Renaissance---About---Desktop" transform="translate(-1568.000000, -5470.000000)" fill="#BBE3B7">
            <g id="PILLARS" transform="translate(30.000000, 5130.000000)">
                <g id="Pillar" transform="translate(1488.000000, 290.000000)">
                    <g id="analysis-(1)" transform="translate(50.000000, 50.000000)">
                        <path d="M29.1325156,4.67239085 C15.6296466,4.67239085 4.68345114,15.6185863 4.68345114,29.1214553 C4.68345114,42.6243243 15.6296466,53.5705198 29.1325156,53.5705198 C42.6353846,53.5705198 53.58158,42.6243243 53.58158,29.1214553 C53.5668815,15.6246985 42.6292723,4.6870894 29.1325156,4.67239085 Z M29.1325156,7.00087318 C36.3240333,7.00654886 43.0630977,10.5114969 47.1968815,16.3962994 L44.2862786,19.3069023 C43.5779834,18.878316 42.7670894,18.6489605 41.9391684,18.6432848 C39.3672141,18.6432848 37.2822037,20.7282952 37.2822037,23.3002495 C37.2862786,24.1290437 37.5143243,24.9412474 37.9423285,25.6508524 L30.3188773,33.2743035 C28.8753638,32.3941372 27.061185,32.3941372 25.6176715,33.2743035 L20.3227027,27.9793347 C20.7507069,27.2697297 20.9787526,26.457526 20.9828274,25.6287318 C20.9860291,23.0618711 18.9078586,20.9784615 16.3409979,20.9752599 C14.2181497,20.9726403 12.363368,22.4085863 11.8342204,24.4644906 L7.51488565,24.4644906 C9.71923077,14.2850936 18.7172141,7.01615385 29.1325156,7.00087318 Z M44.2676507,23.3002495 C44.2676507,24.5862994 43.2252183,25.6287318 41.9391684,25.6287318 C40.6531185,25.6287318 39.6106861,24.5862994 39.6106861,23.3002495 C39.6106861,22.0141996 40.6531185,20.9717672 41.9391684,20.9717672 C43.2252183,20.9717672 44.2676507,22.0141996 44.2676507,23.3002495 Z M30.2967568,37.2711435 C30.2967568,38.5571933 29.2543243,39.5996258 27.9682744,39.5996258 C26.6822245,39.5996258 25.6397921,38.5571933 25.6397921,37.2711435 C25.6397921,35.9850936 26.6822245,34.9426611 27.9682744,34.9426611 C29.2543243,34.9426611 30.2967568,35.9850936 30.2967568,37.2711435 Z M18.6543451,25.6287318 C18.6543451,26.9147817 17.6119127,27.9572141 16.3258628,27.9572141 C15.0398129,27.9572141 13.9973805,26.9147817 13.9973805,25.6287318 C13.9973805,24.3426819 15.0398129,23.3002495 16.3258628,23.3002495 C17.6119127,23.3002495 18.6543451,24.3426819 18.6543451,25.6287318 Z M39.880499,48.4632848 C36.5926819,50.288815 32.8933056,51.2452391 29.1325156,51.2418919 C16.9239917,51.2501871 7.02022869,41.360104 7.01193347,29.15158 C7.01135135,28.3636798 7.05297297,27.5762162 7.13650728,26.7928274 L11.8342204,26.7928274 C12.3635135,28.8426195 14.2088358,30.2775468 16.3258628,30.2855509 C17.154657,30.2814761 17.9668607,30.0534304 18.6764657,29.6254262 L23.9714345,34.920395 C23.5434304,35.63 23.3153846,36.4422037 23.3113098,37.2709979 C23.3113098,39.8429522 25.3963202,41.9279626 27.9682744,41.9279626 C30.5402287,41.9279626 32.6252391,39.8429522 32.6252391,37.2709979 C32.6211642,36.4422037 32.3931185,35.63 31.9651143,34.920395 L39.5885655,27.2969439 C40.2981705,27.724948 41.1103742,27.9529938 41.9391684,27.9570686 C44.5111227,27.9570686 46.5961331,25.8720582 46.5961331,23.300104 C46.5920582,22.4713098 46.3640125,21.659106 45.9360083,20.949501 L48.4740541,18.4126195 C54.3993139,29.0840541 50.5517879,42.5381705 39.880499,48.4632848 Z" id="Shape"></path>
                        <path d="M58.2385447,11.6578378 C60.3555717,11.6498337 62.200894,10.215052 62.7301871,8.16511435 L69.8809563,8.16511435 L69.8809563,5.83663202 L62.7301871,5.83663202 C62.200894,3.78669439 60.3555717,2.35191268 58.2385447,2.34390852 C55.6665904,2.34390852 53.58158,4.42891892 53.58158,7.00087318 C53.5856549,7.82966736 53.8137006,8.6418711 54.2417048,9.35147609 L52.1961331,11.3970478 C42.4085031,-1.35444906 24.1369023,-3.75715177 11.3854054,6.03047817 C-1.36609148,15.8181081 -3.76879418,34.0898545 6.01883576,46.8413514 C15.2576715,58.8777131 32.1931601,61.7974844 44.9289397,53.5495634 L48.4426195,57.0632432 L50.0888565,58.7094802 L59.4609979,68.0816216 C61.8446362,70.4652599 65.7090437,70.4652599 68.0926819,68.0816216 C70.4763202,65.6979834 70.4763202,61.8335759 68.0926819,59.4499376 L58.7205405,50.0777963 L57.0743035,48.4315593 L53.5606237,44.9178794 C59.7979002,35.3105613 59.7979002,22.9324948 53.5606237,13.3250312 L55.889106,10.9965489 C56.5982744,11.4246985 57.4101871,11.6531809 58.2385447,11.6578378 Z M58.2385447,4.67239085 C59.5245946,4.67239085 60.567027,5.71482328 60.567027,7.00087318 C60.567027,8.28692308 59.5245946,9.32935551 58.2385447,9.32935551 C56.9524948,9.32935551 55.9100624,8.28692308 55.9100624,7.00087318 C55.9100624,5.71482328 56.9526403,4.67239085 58.2385447,4.67239085 Z M66.4464449,61.0961746 C67.9375468,62.5538046 67.9647609,64.9442827 66.507131,66.4353846 C65.049501,67.9264865 62.6590229,67.9537006 61.167921,66.4960707 C61.1474012,66.4761331 61.1273181,66.4559044 61.1072349,66.4353846 L51.7350936,57.0632432 L57.0743035,51.7240333 L66.4464449,61.0961746 Z M55.4280665,50.0777963 L50.0888565,55.4170062 L46.866237,52.1943867 C47.030395,52.0686486 47.1840748,51.930104 47.3459044,51.8008732 C47.5077339,51.6716424 47.6951767,51.5167983 47.8686486,51.3712682 C48.1236175,51.1570478 48.3750936,50.940499 48.6219127,50.7181289 C48.748815,50.6017048 48.869896,50.4852807 48.9944699,50.3688565 C49.4718087,49.9217879 49.9340125,49.4595842 50.3810811,48.9822453 C50.4975052,48.8576715 50.6139293,48.7365904 50.7303534,48.6096881 C50.9527235,48.362869 51.1692723,48.1113929 51.3834927,47.8564241 C51.5294595,47.6841164 51.6726611,47.5099168 51.8130977,47.3336798 C51.9411642,47.1730146 52.0797089,47.0193347 52.205447,46.8551767 L55.4280665,50.0777963 Z M50.9131393,44.669896 C50.5464033,45.1821622 50.1680249,45.6839501 49.7686902,46.1671102 C49.6522661,46.3079834 49.5276923,46.4441996 49.4077755,46.5827443 C49.0515177,46.9972141 48.6836175,47.3993139 48.3040748,47.7888981 C48.1387526,47.959605 47.9706653,48.1276923 47.7999584,48.2930146 C47.4118295,48.6725572 47.0098753,49.0404574 46.5938046,49.3967152 C46.4552599,49.5131393 46.3190437,49.6400416 46.1781705,49.7576299 C45.6950104,50.1569647 45.1932225,50.535343 44.6809563,50.902079 C32.6287318,59.5123701 15.8783576,56.7221206 7.26806653,44.669896 C-1.34222453,32.6176715 1.44802495,15.8672973 13.5002495,7.25700624 C25.552474,-1.35328482 42.3028482,1.43681913 50.9131393,13.4891892 C57.5756549,22.815052 57.5756549,35.3440333 50.9131393,44.669896 Z" id="Shape"></path>
                    </g>
                </g>
            </g>
        </g>
    </g>
</svg>