<?xml version="1.0" encoding="UTF-8"?>
<svg width="70px" height="70px" viewBox="0 0 70 70" version="1.1" xmlns="http://www.w3.org/2000/svg" xmlns:xlink="http://www.w3.org/1999/xlink">
    <!-- Generator: Sketch 53.2 (72643) - https://sketchapp.com -->
    <title>customer</title>
    <desc>Created with Sketch.</desc>
    <g id="ABOUT" stroke="none" stroke-width="1" fill="none" fill-rule="evenodd">
        <g id="Renaissance---About---Desktop" transform="translate(-1195.000000, -5470.000000)" fill="#60AD58">
            <g id="PILLARS" transform="translate(30.000000, 5130.000000)">
                <g id="Pillar" transform="translate(1116.000000, 290.000000)">
                    <g id="customer" transform="translate(49.000000, 50.000000)">
                        <path d="M67.8103125,34.5335156 C65.4698242,32.6045508 61.7704883,32.4391211 59.3425,35.0448437 L53.3149805,41.515332 C52.5356836,39.0107812 50.1965625,37.1870898 47.4392188,37.1870898 L36.6828711,37.1870898 C35.8666602,37.1870898 35.5933594,36.8753711 34.1755859,35.783125 C28.77,31.0707031 20.6508203,31.0857422 15.2616406,35.8282422 L11.3080078,39.3088281 C9.53080078,38.3682031 7.45554688,38.3449609 5.66863281,39.2377344 L1.13394531,41.5043945 C0.120859375,42.0116211 -0.289160156,43.2433203 0.2165625,44.2564062 L12.5205664,68.8642773 C13.027793,69.8773633 14.2594922,70.2873828 15.2725781,69.7816602 L19.8072656,67.5136328 C22.0424805,66.3967773 23.2864844,64.1163086 23.2058203,61.7950977 L47.439082,61.7950977 C51.9327539,61.7950977 56.2268164,59.64875 58.9227734,56.0533203 L68.7673438,42.9264062 C70.677168,40.3820703 70.3750195,36.6511523 67.8103125,34.5335156 Z M17.9725,63.8456055 L15.2724414,65.19625 L4.80183594,44.2564062 L7.50326172,42.9057617 C8.51634766,42.3999023 9.74667969,42.8086914 10.2539062,43.8231445 L18.8898828,61.0950977 C19.3957422,62.1080469 18.9855859,63.3383789 17.9725,63.8456055 Z M65.4862305,40.4654687 L55.6417969,53.5923828 C53.7155664,56.1611914 50.6491016,57.6936719 47.4392188,57.6936719 L21.7745117,57.6936719 L14.0899609,42.3233398 L17.9711328,38.9070117 C21.8331641,35.5096875 27.6571094,35.5096875 31.5191406,38.9070117 C33.7940039,40.9098047 35.2089063,41.2885156 36.6827344,41.2885156 L47.439082,41.2885156 C48.5697461,41.2885156 49.4897266,42.2086328 49.4897266,43.3391602 C49.4897266,44.4696875 48.5696094,45.3898047 47.439082,45.3898047 L36.9657422,45.3898047 C35.8337109,45.3898047 34.9150977,46.3085547 34.9150977,47.4404492 C34.9150977,48.5723438 35.8338477,49.4910938 36.9657422,49.4910938 L48.8131055,49.4910938 C50.5151172,49.4910938 52.1557422,48.7774219 53.3149805,47.5320508 L62.3433398,37.8406055 C63.1691211,36.954668 64.435,37.0284961 65.2115625,37.7079883 C66.0235352,38.4187891 66.1111719,39.6342187 65.4862305,40.4654687 Z" id="Shape"></path>
                        <path d="M43.119043,13.9954883 C44.5230078,12.5231641 45.3884375,10.5326758 45.3884375,8.34107422 C45.3884375,3.82689453 41.7410547,0.00177734375 37.1858594,0.00177734375 C32.6648438,0.00177734375 28.8465625,3.82005859 28.8465625,8.34107422 C28.8465625,10.4655469 29.6791797,12.4710742 31.1911523,14.0118945 C27.4412305,16.1144922 24.7452734,20.1501563 24.7452734,24.8830859 L24.7452734,26.9337305 C24.7452734,28.065625 25.6640234,28.984375 26.795918,28.984375 L47.4392188,28.984375 C48.5711133,28.984375 49.4898633,28.065625 49.4898633,26.9337305 L49.4898633,24.8830859 C49.4897266,20.243125 46.9375977,16.1445703 43.119043,13.9954883 Z M37.1858594,4.10320313 C39.4087695,4.10320313 41.2871484,6.04447266 41.2871484,8.34121094 C41.2871484,10.6024023 39.4470508,12.4425 37.1858594,12.4425 C34.8891211,12.4425 32.9478516,10.5641211 32.9478516,8.34121094 C32.9478516,6.08412109 34.9287695,4.10320313 37.1858594,4.10320313 Z M28.8465625,24.8830859 C28.8465625,20.3620703 32.6648437,16.5437891 37.1858594,16.5437891 C41.7082422,16.5437891 45.3884375,20.2841406 45.3884375,24.8830859 L28.8465625,24.8830859 Z" id="Shape"></path>
                    </g>
                </g>
            </g>
        </g>
    </g>
</svg>