<svg xmlns="http://www.w3.org/2000/svg" width="70" height="69" viewBox="0 0 70 69">
    <g fill="#BBE3B7" fill-rule="evenodd">
        <path d="M44.655 17.372a3.422 3.422 0 0 0 3.418-3.418 3.422 3.422 0 0 0-3.418-3.418 3.422 3.422 0 0 0-3.417 3.418c0 .77.255 1.48.687 2.052l-5.616 7.848a3.404 3.404 0 0 0-3.391.747l-3.743-2.124a3.422 3.422 0 0 0-3.341-4.137 3.422 3.422 0 0 0-3.342 4.137l-3.743 2.124a3.404 3.404 0 0 0-2.327-.917 3.422 3.422 0 0 0-3.418 3.418 3.422 3.422 0 0 0 3.418 3.418 3.422 3.422 0 0 0 3.342-4.137l3.743-2.124a3.405 3.405 0 0 0 4.653 0l3.743 2.124a3.422 3.422 0 0 0 3.341 4.137 3.422 3.422 0 0 0 3.419-3.418 3.4 3.4 0 0 0-.688-2.053l5.616-7.848c.335.11.693.17 1.064.17zm0-4.786a1.369 1.369 0 0 1 0 2.735 1.369 1.369 0 0 1-1.367-1.367c0-.754.613-1.368 1.367-1.368zM16.422 28.47a1.369 1.369 0 0 1-1.367-1.367c0-.754.613-1.368 1.367-1.368s1.367.614 1.367 1.368c0 .754-.613 1.367-1.367 1.367zm9.411-5.344a1.369 1.369 0 0 1-1.367-1.367c0-.754.613-1.367 1.367-1.367s1.367.613 1.367 1.367-.613 1.367-1.367 1.367zm9.411 5.344a1.369 1.369 0 0 1-1.367-1.367c0-.754.613-1.368 1.367-1.368s1.368.614 1.368 1.368c0 .754-.614 1.367-1.368 1.367z"/>
        <path d="M57.257 50.718H2.9a.85.85 0 0 1-.85-.85V7.565a.85.85 0 0 1 .85-.85h4.834a1.025 1.025 0 1 0 0-2.05H2.9c-1.599 0-2.9 1.3-2.9 2.9v42.303c0 1.6 1.301 2.9 2.9 2.9h7.07v2.257a2.334 2.334 0 0 0 2.332 2.332h10.264l-4.832 9.433a1.025 1.025 0 0 0 1.826.935l5.31-10.368h11.337l5.31 10.368a1.025 1.025 0 1 0 1.826-.935l-4.832-9.433h10.264a2.334 2.334 0 0 0 2.332-2.332V52.77h6.15a1.025 1.025 0 1 0 0-2.051zm-8.2 4.307c0 .155-.127.281-.282.281H12.302a.281.281 0 0 1-.28-.28v-2.257h37.034v2.256zM11.836 6.715h46.341a.85.85 0 0 1 .85.85v9.75a1.025 1.025 0 1 0 2.05 0v-9.75c0-1.6-1.3-2.9-2.9-2.9H36.23V2.648A2.575 2.575 0 0 0 33.657.076H27.42a2.576 2.576 0 0 0-2.572 2.573v2.015H11.836a1.025 1.025 0 1 0 0 2.051zM26.898 2.65c0-.288.235-.522.522-.522h6.237c.288 0 .522.234.522.522v2.015h-7.28V2.65z"/>
        <path d="M14.342 35.762c-.566 0-1.025.46-1.025 1.026v9.06c0 .567.459 1.026 1.025 1.026h4.16c.566 0 1.025-.46 1.025-1.026v-9.06c0-.567-.459-1.026-1.025-1.026h-4.16zm3.135 9.061h-2.11v-7.01h2.11v7.01zM23.753 30.522c-.566 0-1.025.46-1.025 1.026v14.3c0 .567.459 1.026 1.025 1.026h4.16c.566 0 1.025-.46 1.025-1.026v-14.3c0-.567-.459-1.026-1.025-1.026h-4.16zm3.135 14.301h-2.11v-12.25h2.11v12.25zM33.164 35.762c-.566 0-1.025.46-1.025 1.026v9.06c0 .567.459 1.026 1.025 1.026h4.16c.567 0 1.026-.46 1.026-1.026v-9.06c0-.567-.46-1.026-1.026-1.026h-4.16zm3.135 9.061h-2.11v-7.01h2.11v7.01zM42.575 41.813c-.566 0-1.025.459-1.025 1.025v3.01c0 .567.46 1.026 1.025 1.026h4.16a1.025 1.025 0 1 0 0-2.05h-3.134v-1.986c0-.566-.46-1.025-1.026-1.025zM69.477 51.682l-5.883-10.189A13.335 13.335 0 0 0 66.75 35.8c.926-3.458.45-7.07-1.34-10.17-3.694-6.4-11.907-8.6-18.307-4.905-6.4 3.695-8.6 11.908-4.905 18.308 1.79 3.1 4.68 5.317 8.138 6.244 1.154.31 2.326.462 3.49.462 1.017 0 2.03-.117 3.018-.348l5.882 10.19a3.899 3.899 0 0 0 6.751-3.899zm-18.61-8.386a11.278 11.278 0 0 1-6.893-5.289c-3.13-5.42-1.266-12.376 4.155-15.506a11.281 11.281 0 0 1 5.656-1.518c3.926 0 7.75 2.036 9.85 5.673a11.277 11.277 0 0 1 1.134 8.613 11.277 11.277 0 0 1-5.29 6.893 11.277 11.277 0 0 1-8.613 1.134zm16.158 11.935a1.85 1.85 0 0 1-2.523-.676l-5.659-9.803a13.578 13.578 0 0 0 3.197-1.848l5.66 9.803c.163.282.25.601.25.922 0 .659-.355 1.273-.925 1.602z"/>
        <path d="M63.101 35.22a9.704 9.704 0 0 0-.485-7.03 1.025 1.025 0 1 0-1.855.875 7.657 7.657 0 0 1 .382 5.547 7.66 7.66 0 0 1-3.496 4.375 7.634 7.634 0 0 1-5.832.767 7.634 7.634 0 0 1-4.666-3.58c-2.119-3.67-.857-8.38 2.813-10.498a7.674 7.674 0 0 1 8.483.528 1.025 1.025 0 1 0 1.238-1.636 9.72 9.72 0 0 0-10.747-.668 9.672 9.672 0 0 0-4.536 5.912 9.672 9.672 0 0 0 .973 7.387 9.672 9.672 0 0 0 5.911 4.536 9.678 9.678 0 0 0 7.387-.973 9.704 9.704 0 0 0 4.43-5.542z"/>
    </g>
</svg>
