<svg xmlns="http://www.w3.org/2000/svg" width="70" height="68" viewBox="0 0 70 68">
    <g fill="#60AD58" fill-rule="evenodd">
        <path d="M63.224 56.161a7.85 7.85 0 0 0 3.295-6.391c0-4.332-3.524-7.856-7.856-7.856s-7.856 3.524-7.856 7.856a7.85 7.85 0 0 0 3.296 6.393c-3.91 1.75-6.64 5.675-6.64 10.228a1.218 1.218 0 0 0 2.435 0c0-4.833 3.932-8.765 8.765-8.765s8.765 3.932 8.765 8.765a1.218 1.218 0 0 0 2.436 0c0-4.553-2.73-8.48-6.64-10.23zm-4.561-.971a5.426 5.426 0 0 1-5.42-5.42 5.426 5.426 0 0 1 5.42-5.42 5.426 5.426 0 0 1 5.42 5.42 5.426 5.426 0 0 1-5.42 5.42zM42.703 3.259a10.988 10.988 0 0 0-7.93-3.186C28.677.16 23.783 5.191 23.864 11.29a11.021 11.021 0 0 0 3.119 7.552c1.343 1.386 2.082 3.176 2.082 5.042v1.412a5.174 5.174 0 0 0 5.168 5.168h1.398a5.174 5.174 0 0 0 5.167-5.168v-1.412c0-1.868.737-3.656 2.075-5.034a11.01 11.01 0 0 0 3.128-7.71c0-2.985-1.172-5.784-3.298-7.881zm-4.34 22.038a2.735 2.735 0 0 1-2.732 2.731h-1.398a2.735 2.735 0 0 1-2.731-2.731v-.195h6.86v.195zm2.763-8.144a9.672 9.672 0 0 0-2.683 5.513H36.15v-7.023l3.605-3.605a1.218 1.218 0 0 0-1.723-1.722l-3.1 3.1-3.1-3.1a1.218 1.218 0 0 0-1.723 1.722l3.605 3.605v7.023H31.42c-.266-2.052-1.196-3.978-2.689-5.519a8.595 8.595 0 0 1-2.432-5.89c-.063-4.757 3.754-8.681 8.507-8.748h.126a8.57 8.57 0 0 1 6.06 2.485 8.57 8.57 0 0 1 2.571 6.147 8.587 8.587 0 0 1-2.438 6.012zM23.354 30.821a1.218 1.218 0 0 0-1.723 0l-7.308 7.308a1.218 1.218 0 0 0 1.722 1.723l7.309-7.308a1.218 1.218 0 0 0 0-1.723zM55.54 38.13l-7.307-7.309a1.218 1.218 0 0 0-1.723 1.723l7.308 7.308c.238.238.55.357.862.357a1.218 1.218 0 0 0 .861-2.08zM34.932 33.366c-.673 0-1.218.546-1.218 1.219v4.649a1.218 1.218 0 0 0 2.436 0v-4.65c0-.672-.546-1.218-1.218-1.218z"/>
        <circle cx="55.883" cy="47.038" r="1.218"/>
        <circle cx="60.35" cy="47.038" r="1.218"/>
        <path d="M39.493 56.161a7.85 7.85 0 0 0 3.295-6.391c0-4.332-3.524-7.856-7.856-7.856s-7.856 3.524-7.856 7.856a7.85 7.85 0 0 0 3.296 6.393c-3.91 1.75-6.64 5.675-6.64 10.228a1.218 1.218 0 0 0 2.435 0c0-4.833 3.932-8.765 8.765-8.765s8.765 3.932 8.765 8.765a1.218 1.218 0 0 0 2.436 0c0-4.553-2.73-8.48-6.64-10.23zm-4.561-.971a5.426 5.426 0 0 1-5.42-5.42 5.426 5.426 0 0 1 5.42-5.42 5.426 5.426 0 0 1 5.42 5.42 5.426 5.426 0 0 1-5.42 5.42z"/>
        <circle cx="32.699" cy="47.038" r="1.218"/>
        <circle cx="37.166" cy="47.038" r="1.218"/>
        <path d="M15.76 56.162a7.85 7.85 0 0 0 3.297-6.392c0-4.332-3.524-7.857-7.856-7.857s-7.857 3.525-7.857 7.857A7.85 7.85 0 0 0 6.64 56.16C2.73 57.911 0 61.838 0 66.391a1.218 1.218 0 0 0 2.436 0c0-4.833 3.932-8.765 8.765-8.765s8.764 3.932 8.764 8.765a1.218 1.218 0 0 0 2.437 0c0-4.553-2.732-8.479-6.642-10.229zm-4.56-.972a5.426 5.426 0 0 1-5.42-5.42 5.426 5.426 0 0 1 5.42-5.42 5.426 5.426 0 0 1 5.42 5.42 5.426 5.426 0 0 1-5.42 5.42z"/>
        <circle cx="13.98" cy="47.038" r="1.218"/>
        <circle cx="9.514" cy="47.038" r="1.218"/>
    </g>
</svg>
