<svg xmlns="http://www.w3.org/2000/svg" width="120" height="120" viewBox="0 0 120 120">
    <g fill="none" fill-rule="evenodd" transform="translate(-2)">
        <circle cx="62" cy="60" r="58" stroke="#60AD58" stroke-width="4"/>
        <g fill="#000" fill-rule="nonzero">
            <path d="M83.827 66.62a22.41 22.41 0 0 0 .587-5.034c0-7.84-3.992-14.98-10.68-19.097a.861.861 0 1 0-.905 1.468c6.174 3.802 9.86 10.391 9.86 17.63 0 1.487-.172 2.974-.493 4.436a6.042 6.042 0 0 0-7.265 5.908 6.042 6.042 0 0 0 6.035 6.035A6.042 6.042 0 0 0 87 71.93a6.04 6.04 0 0 0-3.173-5.311zM69.906 80.709A20.575 20.575 0 0 1 62 82.276a20.73 20.73 0 0 1-14.67-6.114 6.012 6.012 0 0 0 1.739-4.231 6.042 6.042 0 0 0-6.035-6.034A6.042 6.042 0 0 0 37 71.93a6.042 6.042 0 0 0 6.034 6.035c1.057 0 2.05-.275 2.915-.755A22.453 22.453 0 0 0 62 84c2.961 0 5.843-.572 8.566-1.7a.863.863 0 0 0-.66-1.591zM40.448 60.908l.061.002c.45 0 .827-.346.86-.801a20.584 20.584 0 0 1 14.845-18.375c.736 2.502 3.049 4.335 5.786 4.335a6.042 6.042 0 0 0 6.034-6.035A6.042 6.042 0 0 0 62 34a6.041 6.041 0 0 0-6.034 6.013c-9.121 2.54-15.646 10.47-16.317 19.975a.861.861 0 0 0 .8.92z"/>
        </g>
    </g>
</svg>
