<svg xmlns="http://www.w3.org/2000/svg" width="120" height="120" viewBox="0 0 120 120">
    <g fill="none" fill-rule="evenodd">
        <circle cx="60" cy="60" r="58" stroke="#60AD58" stroke-width="4"/>
        <path fill="#000" fill-rule="nonzero" d="M78.898 48.452v-8.045c0-.886-.456-1.683-1.22-2.13a2.457 2.457 0 0 0-2.466-.025c-7.424 4.152-15.5 6.577-24.004 7.208-.065.004-7.751.038-7.751.038a3.779 3.779 0 0 0-3.747 3.33h-1.578A3.136 3.136 0 0 0 35 51.958v6.882a3.136 3.136 0 0 0 3.132 3.132h1.578a3.782 3.782 0 0 0 2.225 3.008l5.614 15.493a2.458 2.458 0 0 0 2.302 1.612h5.634a2.452 2.452 0 0 0 2.303-3.286l-4.824-13.305a57.462 57.462 0 0 1 22.248 7.05c.381.213.798.319 1.213.319.431 0 .862-.115 1.253-.344a2.447 2.447 0 0 0 1.22-2.13v-8.045c3.437-.446 6.102-3.39 6.102-6.947s-2.665-6.501-6.102-6.946zM39.683 59.557h-1.55a.717.717 0 0 1-.717-.716v-6.882c0-.395.321-.716.716-.716h1.55v8.314zm3.22 3.21a1.36 1.36 0 0 1-.805-1.238V49.272c0-.75.61-1.358 1.359-1.358h6.575v14.973s-6.633-.003-6.661-.005c-.243-.028-.294-.04-.468-.114zm12.614 16.857c.004.01.006.017-.004.032-.01.014-.018.014-.028.014H49.85a.034.034 0 0 1-.032-.02l-5.198-14.348h5.704l5.192 14.322zm20.965-9.234c0 .017 0 .031-.026.046-.031.018-.05.008-.065 0a59.883 59.883 0 0 0-23.943-7.418V47.78a59.9 59.9 0 0 0 23.943-7.42c.015-.008.034-.018.065 0 .026.015.026.03.026.047V70.39zm2.416-10.49v-9.003a4.599 4.599 0 0 1 3.686 4.501 4.599 4.599 0 0 1-3.686 4.501z"/>
    </g>
</svg>
