<svg xmlns="http://www.w3.org/2000/svg" width="555" height="555" viewBox="0 0 555 555">
    <g fill="none" fill-rule="evenodd" transform="translate(-.447 -.447)">
        <circle cx="277.947" cy="277.947" r="277.5" fill="#DDF1DB"/>
        <g fill-rule="nonzero" transform="translate(.447 .447)">
            <path fill="#FFF" d="M314.68 389L164 238.419l123.054-122.974C346.072 56.468 421.411 17.568 503.03 3.765L525.63 0h3.767C541.955 0 552 10.039 552 22.588v3.764l-2.511 23.842c-13.812 81.564-52.738 156.855-110.498 214.577L314.68 389z"/>
            <path fill="#CCC" d="M450.227 165.766L271 345.106 314.866 389l122.827-122.904C496.6 207.152 534.199 133.16 547.986 51.641L553 27.812V24.05c0-6.27-2.506-11.288-6.266-15.05-18.8 57.69-51.387 111.617-96.507 156.766z"/>
            <g fill="#F79548">
                <path d="M321.409 508.316c-7.534-7.535-20.088-7.535-27.621 0-10.044 10.047-16.322 41.442-17.577 42.698v1.256s1.255 1.257 1.255 0c1.256 0 31.388-6.278 42.688-17.58 10.043-7.536 10.043-18.838 1.255-26.374zM45.198 232.04c-7.533-7.536-20.088-7.536-27.62 0-10.045 10.046-16.322 40.185-16.322 41.44v1.257s1.256 1.256 1.256 0c1.256 0 31.387-6.279 42.687-17.581 8.787-6.28 8.787-17.582 0-25.117zM134.339 419.154c-22.599-22.604-60.265-22.604-82.864 0C20.088 450.55 1.255 542.223 0 545.991c0 2.51 0 3.767 1.256 5.023 2.51 1.256 5.022 1.256 7.533 1.256 3.767-1.256 95.418-18.837 126.806-51.487 22.598-22.606 22.598-59.025-1.256-81.629z"/>
            </g>
            <path fill="#FCBB76" d="M130.527 420.473c-11.297-11.297-30.125-11.297-41.422 0C72.787 436.791 64 481.979 64 483.234c0 1.256 0 2.51 1.256 2.51C66.51 487 66.51 487 67.766 487c2.51 0 47.698-10.042 62.761-25.105 11.297-11.296 11.297-30.125 0-41.422z"/>
            <path fill="#99B4CD" d="M327.5 452L290 414.333 365 339v75.333z"/>
            <path fill="#6C9ABB" d="M323.75 405.545l23.75-23.856C358.75 370.39 365 355.323 365 339l-75 75.333L327.5 452l12.5-12.555-16.25-16.322c-5-5.023-5-12.556 0-17.578z"/>
            <path fill="#D5E3EF" d="M352.333 527L302 476.667l90.6-90.6C398.89 379.775 407.7 376 417.767 376 437.9 376 453 392.358 453 411.234c0 10.066-3.775 18.875-10.067 25.167L352.333 527z"/>
            <path fill="#B0C4D9" d="M442.933 411.55l-90.6 90.353-37.75-37.647L302 476.804 352.333 527l90.6-90.353c6.292-6.274 10.067-15.06 10.067-25.098 0-5.02-1.259-8.784-2.516-12.549-1.26 5.02-3.775 8.785-7.55 12.55z"/>
            <path fill="#99B4CD" d="M102 352c8.75-8.75 18.75-15 28.75-17.5L152 327l75 75-7.5 21.25c-3.75 11.25-10 21.25-17.5 28.75L102 352z"/>
            <path fill="#6C9ABB" d="M151.8 327l-18.8 6.25 41.36 41.25c10.027 10 12.533 23.75 8.773 36.25-1.253 5-3.76 10-7.52 15l26.32 26.25c8.773-8.75 15.04-18.75 17.547-28.75L227 402l-75.2-75z"/>
            <path fill="#99B4CD" d="M102 226.5l37.667 37.5L215 189h-75.333z"/>
            <path fill="#6C9ABB" d="M135.02 235.25c-5.04-5-5.04-12.499 0-17.5L164 189h-25.2L101 226.5l37.8 37.5c7.56-7.5 7.56-17.5 0-25l-3.78-3.75z"/>
            <path fill="#D5E3EF" d="M26 200.667L76.333 251l90.6-90.6C173.225 154.11 177 145.3 177 135.233 177 116.358 160.642 100 141.766 100c-10.066 0-18.875 3.775-25.167 10.067L26 200.667z"/>
            <circle cx="352" cy="201" r="50" fill="#70B7E5"/>
            <path fill="#A7B3CB" d="M352.5 264c-35 0-62.5-27.5-62.5-62.5s27.5-62.5 62.5-62.5 62.5 27.5 62.5 62.5-27.5 62.5-62.5 62.5zm0-100c-21.25 0-37.5 16.25-37.5 37.5s16.25 37.5 37.5 37.5 37.5-16.25 37.5-37.5-16.25-37.5-37.5-37.5z"/>
            <path fill="#4C9CD6" d="M332.501 234c-3.75-6.25-5-12.5-5-20 0-21.25 16.25-37.5 37.5-37.5 7.5 0 13.75 2.5 19.999 5-7.5-10-18.75-17.5-32.5-17.5-21.25 0-37.5 16.25-37.5 37.5.001 13.75 7.501 25 17.501 32.5z"/>
            <path fill="#A7B3CB" d="M315 389.77l-41.461 41.46c-5.026 5.027-12.564 5.027-17.59 0l-133.18-133.179c-5.026-5.026-5.026-12.564 0-17.59L164.232 239 315 389.77z"/>
            <path fill="#4E638D" d="M222.026 358.762l-79.154-79c-5.026-5.016-13.82-5.016-20.102 0-5.027 5.017-5.027 12.54 0 17.556l133.179 132.92c5.026 5.016 12.563 5.016 17.59 0L315 388.857l-43.974-43.889-13.82 13.794c-10.053 10.032-25.13 10.032-35.18 0z"/>
            <path fill="#A7B3CB" d="M390.486 490.378l-37.247 37.252-50.55-50.557 37.247-37.252z"/>
            <path fill="#4E638D" d="M377.43 476.565l-17.6 17.653c-7.543 7.565-17.6 7.565-25.144 0L309.543 469 302 476.565 352.286 527 390 489.174l-12.57-12.609z"/>
            <g fill="#ECF0F9">
                <path d="M214.52 232.565c-1.254 0-3.76 0-5.014-1.254-2.506-2.506-2.506-6.265 0-8.771l62.658-62.658c2.506-2.506 6.265-2.506 8.771 0 2.506 2.506 2.506 6.266 0 8.772l-62.657 62.657c0 1.254-2.506 1.254-3.759 1.254zM302.239 144.844c-1.254 0-3.76 0-5.013-1.253-2.506-2.506-2.506-6.266 0-8.772l25.063-25.063c2.506-2.506 6.265-2.506 8.771 0 2.506 2.506 2.506 6.265 0 8.771l-25.063 25.064c.001 1.253-2.505 1.253-3.758 1.253z"/>
            </g>
            <path fill="#A7B3CB" d="M530.359 0h-3.774l-23.898 3.774C463.695 10.062 427.22 22.64 392 40.249A6920203916.577 6920203916.577 0 0 0 512.75 161c17.61-35.219 28.93-71.695 36.476-110.687L553 27.673v-3.774C553 10.062 542.938 0 530.359 0z"/>
            <g fill="#D3D9E6">
                <path d="M440.438 51.405c-2.51 0-5.02-1.253-6.274-3.758-1.255-3.758 0-6.263 3.765-7.516 25.096-10.02 50.191-16.284 76.542-21.295 3.765 0 6.274 1.253 7.53 5.011 0 3.758-1.256 6.263-5.02 7.516-25.097 3.758-50.192 11.274-74.034 20.042h-2.51zM352.603 139.089v-1.253c-35.135 0-62.74 27.558-62.74 62.631h1.255c6.274 0 11.293-3.758 12.547-10.02 1.256-8.769 6.274-16.284 11.294-22.547 7.529-7.516 16.312-13.78 27.605-16.284 6.274-1.253 10.039-6.264 10.039-12.527z"/>
            </g>
            <path fill="#4E638D" d="M352 262.74V264c35.28 0 63-27.72 63-63h-1.26c-6.3 0-11.34 3.78-12.6 10.08-1.26 8.82-6.3 16.38-11.34 22.68-7.56 7.56-16.38 13.86-27.72 16.379-6.3 1.261-10.08 6.3-10.08 12.6z"/>
            <path fill="#ECF0F9" d="M376.967 433c-1.267 0-3.8 0-5.067-1.255-2.533-2.508-2.533-6.27 0-8.779l25.334-25.085c2.533-2.508 6.333-2.508 8.866 0 2.533 2.508 2.533 6.271 0 8.78l-25.334 25.084c0 1.255-2.533 1.255-3.799 1.255z"/>
            <path fill="#B0C4D9" d="M166.933 135.55l-90.6 90.353-37.75-37.647L26 200.804 76.333 251l90.6-90.353c6.292-6.274 10.067-15.06 10.067-25.098 0-5.02-1.259-8.784-2.516-12.549-1.26 5.02-3.775 8.785-7.55 12.55z"/>
            <path fill="#ECF0F9" d="M101.967 157c-1.267 0-3.8 0-5.067-1.255-2.533-2.508-2.533-6.27 0-8.779l25.334-25.085c2.533-2.508 6.333-2.508 8.866 0 2.533 2.508 2.533 6.271 0 8.78l-25.334 25.084c0 1.255-2.533 1.255-3.799 1.255z"/>
            <path fill="#A7B3CB" d="M114.53 214.418L77.285 251.67l-50.55-50.557 37.247-37.252z"/>
            <g fill="#4E638D">
                <path d="M101.703 200.722L84.15 218.311c-7.523 7.538-17.554 7.538-25.078 0l-25.078-25.127-7.523 7.538 50.154 50.252 37.617-37.689-12.538-12.563zM481.627 129.113l31.347 31.408c17.555-35.178 28.84-71.61 36.362-110.556l3.762-22.613v-3.77c0-6.28-2.507-11.307-6.27-15.076-13.792 42.714-36.361 84.173-65.2 120.607z"/>
            </g>
        </g>
    </g>
</svg>
