<svg xmlns="http://www.w3.org/2000/svg" width="120" height="120" viewBox="0 0 120 120">
    <g fill="none" fill-rule="evenodd" transform="translate(-2)">
        <circle cx="62" cy="60" r="58" stroke="#60AD58" stroke-width="4"/>
        <path fill="#000" fill-rule="nonzero" d="M82.545 35a5.46 5.46 0 0 0-5.454 5.455c0 .94.239 1.826.66 2.6l-8.936 8.935a7.22 7.22 0 0 0-8.904 0l-6.972-6.973c.32-.54.516-1.162.516-1.835a3.64 3.64 0 0 0-3.637-3.637 3.64 3.64 0 0 0-3.636 3.637 3.64 3.64 0 0 0 3.636 3.636c.673 0 1.295-.195 1.836-.515l6.971 6.972a7.23 7.23 0 0 0 0 8.904L47.113 73.693a5.428 5.428 0 0 0-3.658-1.42A5.46 5.46 0 0 0 38 77.727a5.46 5.46 0 0 0 5.455 5.455 5.46 5.46 0 0 0 5.454-5.455c0-.94-.239-1.826-.66-2.6l11.663-11.662a7.23 7.23 0 0 0 3.543 1.471v9.237c-2.575.434-4.545 2.674-4.545 5.372A5.46 5.46 0 0 0 64.365 85a5.46 5.46 0 0 0 5.454-5.455c0-2.697-1.97-4.937-4.545-5.372v-9.237a7.23 7.23 0 0 0 3.543-1.471l6.972 6.971a3.586 3.586 0 0 0-.516 1.837 3.64 3.64 0 0 0 3.636 3.636 3.64 3.64 0 0 0 3.636-3.636 3.64 3.64 0 0 0-3.636-3.637c-.673 0-1.294.196-1.835.516l-6.972-6.972a7.23 7.23 0 0 0 0-8.905l8.786-8.786c.968.88 2.25 1.42 3.657 1.42A5.46 5.46 0 0 0 88 40.455 5.46 5.46 0 0 0 82.545 35zM48 43.182a1.82 1.82 0 0 1 1.818-1.818 1.82 1.82 0 0 1 1.818 1.818A1.82 1.82 0 0 1 49.818 45 1.82 1.82 0 0 1 48 43.182zm-4.545 38.182a3.64 3.64 0 0 1-3.637-3.637 3.64 3.64 0 0 1 3.637-3.636 3.64 3.64 0 0 1 3.636 3.636 3.64 3.64 0 0 1-3.636 3.637zM68 79.545a3.64 3.64 0 0 1-3.636 3.637 3.64 3.64 0 0 1-3.637-3.637 3.64 3.64 0 0 1 3.637-3.636A3.64 3.64 0 0 1 68 79.545zm-3.636-16.363a5.46 5.46 0 0 1-5.455-5.455 5.46 5.46 0 0 1 5.455-5.454 5.46 5.46 0 0 1 5.454 5.454 5.46 5.46 0 0 1-5.454 5.455zm16.363 9.09a1.82 1.82 0 0 1-1.818 1.819 1.82 1.82 0 0 1-1.818-1.818 1.82 1.82 0 0 1 1.818-1.818 1.82 1.82 0 0 1 1.818 1.818zm1.818-28.181a3.64 3.64 0 0 1-3.636-3.636 3.64 3.64 0 0 1 3.636-3.637 3.64 3.64 0 0 1 3.637 3.637 3.64 3.64 0 0 1-3.637 3.636z"/>
    </g>
</svg>
