<svg xmlns="http://www.w3.org/2000/svg" width="120" height="120" viewBox="0 0 120 120">
    <g fill="none" fill-rule="evenodd" transform="translate(-2)">
        <circle cx="62" cy="60" r="58" stroke="#60AD58" stroke-width="4"/>
        <g fill="#000" fill-rule="nonzero">
            <path d="M88 68.838c0-7.288-4.91-13.656-11.835-15.574C75.729 43.119 67.342 35 57.092 35 46.564 35 38 43.564 38 54.092c0 3.43.913 6.771 2.647 9.704l-2.577 9.317 9.318-2.577a19.02 19.02 0 0 0 8.875 2.628C58.182 80.089 64.55 85 71.838 85c2.909 0 5.738-.775 8.224-2.247l7.867 2.176-2.176-7.867A16.104 16.104 0 0 0 88 68.838zm-40.15-1.47l-5.578 1.544 1.543-5.578-.352-.55a16.108 16.108 0 0 1-2.533-8.692c0-8.912 7.25-16.162 16.162-16.162 8.912 0 16.162 7.25 16.162 16.162 0 8.912-7.25 16.162-16.162 16.162-3.093 0-6.098-.876-8.692-2.534l-.55-.352zm35.878 13.36l-4.139-1.145-.553.36a13.182 13.182 0 0 1-7.198 2.127c-5.728 0-10.762-3.703-12.545-9.014 8.771-1.011 15.752-7.992 16.763-16.764 5.31 1.784 9.014 6.818 9.014 12.546 0 2.566-.736 5.056-2.128 7.198l-.36.553 1.146 4.139z"/>
            <path d="M55.627 61.465h2.93v2.93h-2.93zM60.021 49.648a2.9 2.9 0 0 1-.953 2.163l-3.441 3.15v3.574h2.93v-2.284l2.489-2.279a5.876 5.876 0 0 0 1.905-4.324 5.866 5.866 0 0 0-5.86-5.859 5.866 5.866 0 0 0-5.859 5.86h2.93a2.933 2.933 0 0 1 2.93-2.93 2.933 2.933 0 0 1 2.93 2.93z"/>
        </g>
    </g>
</svg>
