<?xml version="1.0" standalone="no"?>
<!DOCTYPE svg PUBLIC "-//W3C//DTD SVG 20010904//EN"
 "http://www.w3.org/TR/2001/REC-SVG-20010904/DTD/svg10.dtd">
<svg version="1.0" xmlns="http://www.w3.org/2000/svg"
 width="1002.000000pt" height="1002.000000pt" viewBox="0 0 1002.000000 1002.000000"
 preserveAspectRatio="xMidYMid meet">
<metadata>
Created by potrace 1.11, written by Peter Selinger 2001-2013
</metadata>
<g transform="translate(0.000000,1002.000000) scale(0.100000,-0.100000)"
fill="#000000" stroke="none">
<path d="M3052 7037 l-2032 -2032 414 -415 c229 -228 419 -411 423 -407 4 4
357 356 784 782 l775 775 387 -386 386 -387 -23 -31 c-13 -17 -43 -65 -68
-106 -207 -345 -335 -731 -375 -1130 -15 -145 -6 -588 12 -620 1 -3 6 -34 9
-69 4 -36 9 -67 11 -71 2 -4 7 -22 10 -41 35 -207 136 -490 256 -719 156 -297
283 -455 718 -892 l346 -348 392 392 393 393 -335 335 c-185 184 -362 371
-395 415 -54 72 -75 104 -142 223 -42 75 -99 224 -127 334 -69 266 -71 532 -5
785 14 54 27 105 29 113 6 28 76 198 88 215 11 14 41 -12 247 -217 259 -258
322 -313 455 -401 435 -287 985 -366 1491 -212 108 33 265 102 365 161 396
232 691 610 813 1044 27 99 32 117 42 185 3 22 10 65 15 95 4 30 6 141 4 245
-3 156 -8 211 -29 308 -62 290 -184 546 -364 767 -33 41 -708 722 -1499 1512
l-1438 1437 -2033 -2032z m1733 -62 c219 -115 281 -148 350 -185 76 -41 179
-95 350 -185 61 -32 124 -65 140 -75 17 -10 93 -50 170 -90 77 -40 154 -80
170 -90 17 -10 89 -48 160 -85 122 -63 157 -82 318 -169 34 -18 82 -43 106
-56 l44 -22 -209 -209 -209 -209 87 -87 c47 -49 220 -225 385 -392 164 -167
353 -360 421 -428 67 -68 122 -126 122 -129 0 -2 -39 17 -87 42 -172 91 -270
142 -378 199 -60 32 -144 76 -185 97 -138 73 -274 145 -350 185 -41 22 -236
124 -433 228 l-358 189 206 206 205 206 -49 44 c-27 25 -111 104 -187 176 -77
73 -155 146 -174 164 -19 18 -75 71 -125 118 -120 114 -213 201 -379 357 -76
72 -182 172 -235 223 l-96 94 55 -30 c30 -16 105 -55 165 -87z m2047 -410 c19
-27 77 -113 129 -190 53 -77 174 -255 269 -395 95 -140 189 -277 207 -304 19
-27 30 -53 26 -57 -4 -3 -39 -12 -78 -18 -159 -26 -216 -42 -211 -60 3 -9 34
-126 70 -261 36 -135 70 -261 76 -280 34 -121 39 -143 35 -139 -4 5 -150 227
-287 436 -42 65 -122 187 -178 272 l-101 155 28 11 c15 7 31 11 34 9 12 -7
234 45 232 54 -2 9 -181 515 -262 741 -16 45 -28 81 -26 80 2 -2 18 -26 37
-54z m-1689 -1580 c89 -18 341 -65 382 -71 17 -3 50 -9 75 -14 67 -14 309 -59
355 -65 22 -4 48 -8 57 -11 9 -3 25 -6 35 -8 141 -25 151 -28 148 -44 -2 -10
-17 -79 -33 -154 l-29 -137 71 -15 c39 -8 157 -33 261 -55 324 -68 371 -79
345 -81 -14 -1 -36 -3 -50 -5 -14 -1 -70 -5 -125 -9 -55 -4 -121 -9 -146 -11
-25 -2 -90 -7 -145 -10 -54 -3 -124 -8 -154 -10 -30 -3 -84 -7 -120 -10 -207
-14 -250 -16 -250 -13 0 2 16 57 35 122 19 66 35 122 35 126 0 7 -81 58 -185
115 -223 124 -656 375 -646 375 6 0 44 -7 84 -15z"/>
</g>
</svg>
