<svg xmlns="http://www.w3.org/2000/svg" viewBox="0 0 500 500"><g transform="matrix(0.031697, 0, 0, -0.031697, 43.995476, 484.114044)" fill="#000000" stroke="none" style=""><path d="M5265 13369 c-676 -655 -1230 -1196 -1230 -1202 0 -16 2455 -4067 2465 -4067 10 0 2465 4051 2465 4067 0 11 -2454 2393 -2465 2392 -3 0 -558 -535 -1235 -1190z" style="fill: rgb(253, 91, 26);"></path><path d="M43 11218 c18 -51 269 -769 558 -1595 288 -827 529 -1503 534 -1503 22 0 439 -115 679 -186 1637 -490 2774 -1055 3098 -1538 367 -550 699 -1926 962 -3997 87 -680 192 -1684 228 -2184 2 -22 8 140 13 360 15 599 13 3596 -3 4060 -43 1287 -99 1919 -198 2217 -65 196 -267 542 -447 766 -302 376 -686 726 -1187 1082 -308 220 -587 394 -1045 655 -364 207 -874 516 -2452 1486 -419 258 -764 469 -767 469 -3 0 9 -42 27 -92z" style="fill: rgb(253, 91, 26);"></path><path d="M12570 11058 c-1256 -776 -2460 -1509 -2730 -1661 -579 -327 -921 -545 -1285 -818 -665 -498 -1118 -995 -1370 -1502 -40 -81 -85 -182 -99 -225 -99 -297 -157 -947 -198 -2212 -16 -470 -18 -3468 -3 -4065 5 -220 11 -382 13 -360 35 484 140 1497 222 2145 264 2079 593 3458 957 4020 335 516 1583 1121 3338 1620 132 37 290 80 351 96 l110 28 524 1500 c288 826 539 1543 557 1594 18 50 29 92 25 91 -4 0 -189 -113 -412 -251z" style="fill: rgb(253, 91, 26);"></path></g></svg>